<svg id="linkedin-footer" xmlns="http://www.w3.org/2000/svg" width="14.281" height="14.281" viewBox="0 0 14.281 14.281">
  <path id="Path_14" data-name="Path 14" d="M17.715,17.348h0V12.11c0-2.562-.552-4.536-3.547-4.536a3.11,3.11,0,0,0-2.8,1.539h-.042v-1.3H8.489v9.534h2.957V12.627c0-1.243.236-2.445,1.775-2.445,1.517,0,1.539,1.419,1.539,2.525v4.642Z" transform="translate(-3.438 -3.067)" fill="#fff"/>
  <path id="Path_15" data-name="Path 15" d="M.4,7.977H3.357v9.534H.4Z" transform="translate(-0.16 -3.23)" fill="#fff"/>
  <path id="Path_16" data-name="Path 16" d="M1.715,0A1.723,1.723,0,1,0,3.43,1.715,1.715,1.715,0,0,0,1.715,0Z" fill="#fff"/>
</svg>
