<svg id="linkedin" xmlns="http://www.w3.org/2000/svg" width="26.599" height="26.599" viewBox="0 0 26.599 26.599">
  <path id="Path_14" data-name="Path 14" d="M25.673,25.779h.007V16.023c0-4.772-1.027-8.449-6.607-8.449a5.792,5.792,0,0,0-5.217,2.867h-.078V8.02H8.489V25.778H14V16.985c0-2.315.439-4.554,3.306-4.554,2.825,0,2.867,2.642,2.867,4.7v8.646Z" transform="translate(0.919 0.82)"/>
  <path id="Path_15" data-name="Path 15" d="M.4,7.977H5.911V25.735H.4Z" transform="translate(0.043 0.864)"/>
  <path id="Path_16" data-name="Path 16" d="M3.194,0A3.209,3.209,0,1,0,6.388,3.194,3.2,3.2,0,0,0,3.194,0Z"/>
</svg>
