<svg xmlns="http://www.w3.org/2000/svg" width="17.153" height="13.937" viewBox="0 0 17.153 13.937">
  <g id="twitter-footer" transform="translate(0 -48)">
    <g id="Group_33" data-name="Group 33" transform="translate(0 48)">
      <path id="Path_13" data-name="Path 13" d="M17.153,49.65a7.332,7.332,0,0,1-2.026.555,3.5,3.5,0,0,0,1.547-1.944,7.028,7.028,0,0,1-2.23.851,3.516,3.516,0,0,0-6.083,2.4,3.621,3.621,0,0,0,.081.8,9.954,9.954,0,0,1-7.248-3.678,3.518,3.518,0,0,0,1.081,4.7,3.473,3.473,0,0,1-1.589-.433v.039A3.533,3.533,0,0,0,3.5,56.4a3.51,3.51,0,0,1-.922.116,3.109,3.109,0,0,1-.666-.06A3.55,3.55,0,0,0,5.2,58.907a7.066,7.066,0,0,1-4.36,1.5A6.587,6.587,0,0,1,0,60.359a9.9,9.9,0,0,0,5.395,1.578A9.94,9.94,0,0,0,15.4,51.93c0-.155-.005-.306-.013-.455A7.015,7.015,0,0,0,17.153,49.65Z" transform="translate(0 -48)" fill="#fff"/>
    </g>
  </g>
</svg>
