<svg id="twitter" xmlns="http://www.w3.org/2000/svg" width="31.949" height="25.959" viewBox="0 0 31.949 25.959">
  <g id="Group_33" data-name="Group 33">
    <path id="Path_13" data-name="Path 13" d="M31.949,51.073a13.656,13.656,0,0,1-3.774,1.034,6.513,6.513,0,0,0,2.881-3.62A13.089,13.089,0,0,1,26.9,50.073a6.549,6.549,0,0,0-11.33,4.479,6.744,6.744,0,0,0,.152,1.494,18.539,18.539,0,0,1-13.5-6.851,6.552,6.552,0,0,0,2.013,8.754,6.468,6.468,0,0,1-2.959-.807v.072a6.58,6.58,0,0,0,5.248,6.436,6.537,6.537,0,0,1-1.717.216,5.791,5.791,0,0,1-1.24-.112,6.612,6.612,0,0,0,6.12,4.563,13.161,13.161,0,0,1-8.121,2.794A12.268,12.268,0,0,1,0,71.019a18.44,18.44,0,0,0,10.048,2.939c12.053,0,18.642-9.984,18.642-18.638,0-.29-.01-.569-.024-.847A13.067,13.067,0,0,0,31.949,51.073Z" transform="translate(0 -48)"/>
  </g>
</svg>
